<?xml version="1.0" encoding="UTF-8" standalone="no"?>
<!-- Created with Inkscape (http://www.inkscape.org/) -->
<svg xmlns:dc="http://purl.org/dc/elements/1.1/" xmlns:cc="http://creativecommons.org/ns#" xmlns:rdf="http://www.w3.org/1999/02/22-rdf-syntax-ns#" xmlns:svg="http://www.w3.org/2000/svg" xmlns="http://www.w3.org/2000/svg" xmlns:sodipodi="http://sodipodi.sourceforge.net/DTD/sodipodi-0.dtd" xmlns:inkscape="http://www.inkscape.org/namespaces/inkscape" version="1.1" id="svg2" xml:space="preserve" width="925.91064" height="1060.8586" viewBox="0 0 925.91064 1060.8586" sodipodi:docname="decentralized.svg" inkscape:version="0.92.3 (2405546, 2018-03-11)"><metadata id="metadata8"><rdf:RDF><cc:Work rdf:about=""><dc:format>image/svg+xml</dc:format><dc:type rdf:resource="http://purl.org/dc/dcmitype/StillImage"/><dc:title/></cc:Work></rdf:RDF></metadata><defs id="defs6"/><sodipodi:namedview pagecolor="#ffffff" bordercolor="#666666" borderopacity="1" objecttolerance="10" gridtolerance="10" guidetolerance="10" inkscape:pageopacity="0" inkscape:pageshadow="2" inkscape:window-width="1920" inkscape:window-height="1080" id="namedview4" showgrid="false" fit-margin-top="0" fit-margin-left="0" fit-margin-right="0" fit-margin-bottom="0" inkscape:zoom="0.34766083" inkscape:cx="-570.41729" inkscape:cy="637.33709" inkscape:window-x="0" inkscape:window-y="0" inkscape:window-maximized="1" inkscape:current-layer="g12"/><g id="g10" inkscape:groupmode="layer" inkscape:label="ink_ext_XXXXXX" transform="matrix(1.3333333,0,0,-1.3333333,-539.39599,1587.1333)"><g id="g12" transform="scale(0.1)"><path d="m 7385.23,7111.03 c -556.37,0 -1007.38,432.98 -1007.38,967.1 0,534.11 451.01,967.09 1007.38,967.09 556.37,0 1007.38,-432.98 1007.38,-967.09 0,-534.12 -451.01,-967.1 -1007.38,-967.1" style="fill:#164f86;fill-opacity:1;fill-rule:evenodd;stroke:none" id="path16" inkscape:connector-curvature="0"/><path d="m 6236.12,8078.13 h 283.46 v 0 l 1.12,-42.33 3.3,-41.67 5.43,-41.03 7.51,-40.36 9.53,-39.64 11.51,-38.9 13.43,-38.11 15.31,-37.27 17.15,-36.41 18.92,-35.47 20.67,-34.5 22.35,-33.47 23.98,-32.38 25.57,-31.23 27.11,-30.05 28.59,-28.79 30.01,-27.47 31.38,-26.09 32.7,-24.67 33.96,-23.18 35.16,-21.64 36.31,-20.04 37.4,-18.39 38.44,-16.69 39.42,-14.92 40.36,-13.11 41.24,-11.25 42.07,-9.32 42.85,-7.34 43.6,-5.32 44.29,-3.24 44.98,-1.09 v -283.47 l -58.7,1.43 -58.03,4.23 -57.23,6.98 -56.36,9.66 -55.41,12.28 -54.37,14.82 -53.26,17.3 -52.07,19.71 -50.8,22.05 -49.48,24.33 -48.06,26.53 -46.58,28.67 -45.04,30.74 -43.41,32.75 -41.72,34.69 -39.96,36.58 -38.12,38.39 -36.22,40.14 -34.24,41.83 -32.19,43.45 -30.05,45.01 -27.85,46.5 -25.57,47.92 -23.21,49.28 -20.76,50.55 -18.24,51.77 -15.64,52.88 -12.96,53.94 -10.22,54.89 -7.37,55.77 -4.48,56.55 z m 1149.11,1108.83 v -283.47 l -44.98,-1.09 -44.29,-3.23 -43.6,-5.32 -42.85,-7.35 -42.07,-9.32 -41.24,-11.25 -40.36,-13.11 -39.42,-14.92 -38.44,-16.69 -37.4,-18.39 -36.31,-20.04 -35.16,-21.64 -33.96,-23.18 -32.7,-24.67 -31.38,-26.09 -30.01,-27.47 -28.59,-28.79 -27.11,-30.04 -25.57,-31.24 -23.98,-32.38 -22.35,-33.47 -20.67,-34.5 -18.92,-35.47 -17.15,-36.41 -15.31,-37.27 -13.43,-38.11 -11.51,-38.9 -9.53,-39.64 -7.51,-40.36 -5.43,-41.03 -3.3,-41.67 -1.12,-42.32 h -283.46 l 1.51,57.21 4.48,56.55 7.37,55.77 10.22,54.89 12.96,53.94 15.64,52.89 18.24,51.76 20.76,50.56 23.21,49.27 25.57,47.92 27.85,46.5 30.05,45.01 32.19,43.46 34.24,41.82 36.22,40.14 38.12,38.39 39.96,36.58 41.72,34.69 43.41,32.75 45.04,30.74 46.58,28.67 48.06,26.53 49.48,24.33 50.8,22.05 52.07,19.71 53.26,17.3 54.37,14.82 55.41,12.28 56.36,9.66 57.23,6.98 58.03,4.23 z M 8534.34,8078.13 h -283.46 v 0 l -1.11,42.32 -3.31,41.67 -5.43,41.03 -7.51,40.36 -9.53,39.64 -11.51,38.9 -13.43,38.11 -15.31,37.27 -17.14,36.41 -18.93,35.47 -20.66,34.5 -22.36,33.47 -23.98,32.38 -25.57,31.24 -27.11,30.04 -28.59,28.79 -30.01,27.47 -31.38,26.09 -32.7,24.67 -33.95,23.18 -35.16,21.64 -36.32,20.04 -37.4,18.39 -38.44,16.69 -39.42,14.92 -40.35,13.11 -41.25,11.25 -42.06,9.32 -42.86,7.35 -43.6,5.32 -44.29,3.23 -44.98,1.09 v 283.47 l 58.7,-1.43 58.03,-4.23 57.23,-6.98 56.36,-9.66 55.41,-12.28 54.37,-14.82 53.26,-17.3 52.07,-19.71 50.81,-22.05 49.47,-24.33 48.06,-26.53 46.59,-28.67 45.03,-30.74 43.41,-32.75 41.72,-34.69 39.97,-36.58 38.12,-38.39 36.22,-40.14 34.24,-41.82 32.18,-43.46 30.06,-45.01 27.85,-46.5 25.56,-47.92 23.21,-49.27 20.76,-50.56 18.24,-51.76 15.64,-52.89 12.97,-53.94 10.21,-54.89 7.38,-55.77 4.48,-56.55 z M 7385.23,6969.29 v 283.47 l 44.98,1.09 44.29,3.24 43.6,5.32 42.86,7.34 42.06,9.32 41.25,11.25 40.35,13.11 39.42,14.92 38.44,16.69 37.4,18.39 36.32,20.04 35.16,21.64 33.95,23.18 32.7,24.67 31.38,26.09 30.01,27.47 28.59,28.79 27.11,30.05 25.57,31.23 23.98,32.38 22.36,33.47 20.66,34.5 18.93,35.47 17.14,36.41 15.31,37.27 13.43,38.11 11.51,38.9 9.53,39.64 7.51,40.36 5.43,41.03 3.31,41.67 1.11,42.33 h 283.46 l -1.5,-57.22 -4.48,-56.55 -7.38,-55.77 -10.21,-54.89 -12.97,-53.94 -15.64,-52.88 -18.24,-51.77 -20.76,-50.55 -23.21,-49.28 -25.56,-47.92 -27.85,-46.5 -30.06,-45.01 -32.18,-43.45 -34.24,-41.83 -36.22,-40.14 -38.12,-38.39 -39.97,-36.58 -41.72,-34.69 -43.41,-32.75 -45.03,-30.74 -46.59,-28.67 -48.06,-26.53 -49.47,-24.33 -50.81,-22.05 -52.07,-19.71 -53.26,-17.3 -54.37,-14.82 -55.41,-12.28 -56.36,-9.66 -57.23,-6.98 -58.03,-4.23 -58.7,-1.43 v 0" style="fill:#164f86;fill-opacity:1;fill-rule:evenodd;stroke:none" id="path18" inkscape:connector-curvature="0"/><path d="m 10088,9335.35 c -419.83,0 -760.14,326.7 -760.14,729.75 0,403 340.31,729.7 760.14,729.7 419.8,0 760.1,-326.7 760.1,-729.7 0,-403.05 -340.3,-729.75 -760.1,-729.75" style="fill:#164f86;fill-opacity:1;fill-rule:evenodd;stroke:none" id="path20" inkscape:connector-curvature="0"/><path d="m 9186.13,10065.1 h 283.46 v 0 l 0.8,-30.1 2.34,-29.7 3.86,-29.11 5.34,-28.67 6.77,-28.16 8.17,-27.63 9.55,-27.07 10.88,-26.5 12.19,-25.89 13.47,-25.24 14.71,-24.57 15.92,-23.83 17.09,-23.07 18.23,-22.27 19.34,-21.43 20.4,-20.54 21.42,-19.61 22.41,-18.64 23.36,-17.62 24.26,-16.56 25.13,-15.47 25.96,-14.33 26.73,-13.14 27.49,-11.93 28.19,-10.67 28.87,-9.38 29.51,-8.04 30.11,-6.68 30.67,-5.26 31.24,-3.81 31.7,-2.32 32.3,-0.78 v -283.46 l -46,1.11 -45.47,3.32 -44.86,5.47 -44.19,7.57 -43.44,9.63 -42.63,11.62 -41.77,13.57 -40.84,15.46 -39.86,17.29 -38.81,19.09 -37.71,20.81 -36.55,22.49 -35.34,24.13 -34.07,25.7 -32.76,27.24 -31.36,28.72 -29.94,30.14 -28.45,31.53 -26.9,32.86 -25.29,34.15 -23.62,35.37 -21.9,36.56 -20.1,37.69 -18.25,38.76 -16.34,39.77 -14.35,40.74 -12.32,41.62 -10.2,42.45 -8.04,43.2 -5.8,43.89 -3.53,44.53 z m 901.87,871.4 v -283.4 l -32.3,-0.8 -31.7,-2.3 -31.24,-3.9 -30.67,-5.2 -30.11,-6.7 -29.51,-8 -28.87,-9.4 -28.19,-10.7 -27.49,-11.9 -26.73,-13.2 -25.96,-14.3 -25.13,-15.5 -24.26,-16.5 -23.36,-17.6 -22.41,-18.7 -21.42,-19.6 -20.4,-20.5 -19.34,-21.5 -18.23,-22.2 -17.09,-23.1 -15.92,-23.8 -14.71,-24.6 -13.47,-25.2 -12.19,-25.9 -10.88,-26.5 -9.55,-27.1 -8.17,-27.6 -6.77,-28.2 -5.34,-28.7 -3.86,-29.1 -2.34,-29.6 -0.8,-30.1 h -283.46 l 1.18,45 3.53,44.5 5.8,43.8 8.04,43.3 10.2,42.4 12.32,41.6 14.35,40.8 16.34,39.7 18.25,38.8 20.1,37.7 21.9,36.5 23.62,35.4 25.29,34.2 26.9,32.8 28.45,31.6 29.93,30.1 31.37,28.7 32.76,27.3 34.07,25.7 35.34,24.1 36.55,22.5 37.71,20.8 38.81,19.1 39.86,17.3 40.84,15.4 41.77,13.6 42.63,11.6 43.44,9.6 44.19,7.6 44.86,5.5 45.47,3.3 z m 901.8,-871.4 h -283.4 v 0 l -0.8,30.1 -2.4,29.6 -3.8,29.1 -5.4,28.7 -6.7,28.2 -8.2,27.6 -9.6,27.1 -10.9,26.5 -12.1,25.9 -13.5,25.2 -14.7,24.6 -15.9,23.8 -17.1,23.1 -18.3,22.2 -19.3,21.5 -20.4,20.5 -21.4,19.6 -22.4,18.7 -23.4,17.6 -24.3,16.5 -25.1,15.5 -25.9,14.3 -26.8,13.2 -27.5,11.9 -28.2,10.7 -28.8,9.4 -29.5,8 -30.1,6.7 -30.7,5.2 -31.2,3.9 -31.8,2.3 -32.2,0.8 v 283.4 l 46,-1.1 45.4,-3.3 44.9,-5.5 44.2,-7.6 43.4,-9.6 42.6,-11.6 41.8,-13.6 40.9,-15.4 39.8,-17.3 38.8,-19.1 37.7,-20.8 36.6,-22.5 35.3,-24.1 34.1,-25.8 32.7,-27.2 31.4,-28.7 30,-30.1 28.4,-31.6 26.9,-32.8 25.3,-34.2 23.6,-35.4 21.9,-36.5 20.1,-37.7 18.3,-38.8 16.3,-39.7 14.4,-40.8 12.3,-41.6 10.2,-42.4 8,-43.3 5.8,-43.8 3.5,-44.5 z M 10088,9193.62 v 283.46 l 32.2,0.78 31.8,2.32 31.2,3.81 30.7,5.26 30.1,6.68 29.5,8.04 28.8,9.38 28.2,10.67 27.5,11.93 26.8,13.14 25.9,14.33 25.1,15.47 24.3,16.56 23.4,17.62 22.4,18.64 21.4,19.61 20.4,20.54 19.3,21.43 18.3,22.26 17.1,23.09 15.9,23.83 14.7,24.56 13.5,25.24 12.1,25.89 10.9,26.5 9.6,27.07 8.2,27.63 6.7,28.16 5.4,28.67 3.8,29.11 2.4,29.7 0.8,30.1 h 283.4 l -1.2,-45 -3.5,-44.53 -5.8,-43.89 -8,-43.2 -10.2,-42.45 -12.3,-41.62 -14.4,-40.74 -16.3,-39.77 -18.3,-38.76 -20.1,-37.69 -21.9,-36.56 -23.6,-35.38 -25.3,-34.14 -26.9,-32.86 -28.4,-31.53 -30,-30.15 -31.4,-28.71 -32.7,-27.23 -34.1,-25.71 -35.3,-24.13 -36.6,-22.49 -37.7,-20.81 -38.8,-19.09 -39.8,-17.29 -40.9,-15.46 -41.8,-13.57 -42.6,-11.62 -43.4,-9.63 -44.2,-7.57 -44.9,-5.47 -45.4,-3.32 -46,-1.11 v 0" style="fill:#164f86;fill-opacity:1;fill-rule:evenodd;stroke:none" id="path22" inkscape:connector-curvature="0"/><path d="m 6841.54,4088.79 c -316.11,0 -572.37,246.01 -572.37,549.49 0,303.47 256.26,549.48 572.37,549.48 316.12,0 572.37,-246.01 572.37,-549.48 0,-303.48 -256.25,-549.49 -572.37,-549.49" style="fill:#164f86;fill-opacity:1;fill-rule:evenodd;stroke:none" id="path24" inkscape:connector-curvature="0"/><path d="m 6127.44,4638.28 h 283.46 v 0 l 0.55,-20.84 1.62,-20.46 2.67,-20.13 3.68,-19.8 4.67,-19.42 5.66,-19.09 6.59,-18.7 7.52,-18.32 8.43,-17.9 9.32,-17.47 10.19,-17.01 11.03,-16.52 11.87,-16.01 12.65,-15.47 13.44,-14.89 14.17,-14.27 14.91,-13.64 15.6,-12.98 16.26,-12.27 16.91,-11.54 17.51,-10.78 18.09,-9.98 18.65,-9.17 19.16,-8.32 19.67,-7.44 20.15,-6.55 20.59,-5.61 21.03,-4.66 21.43,-3.68 21.83,-2.66 22.2,-1.63 22.59,-0.55 v -283.46 l -36.31,0.88 -35.94,2.62 -35.46,4.33 -34.94,5.99 -34.36,7.61 -33.73,9.19 -33.04,10.74 -32.32,12.22 -31.54,13.7 -30.72,15.1 -29.84,16.47 -28.93,17.81 -27.98,19.1 -26.99,20.36 -25.93,21.57 -24.85,22.74 -23.72,23.89 -22.55,24.98 -21.33,26.06 -20.05,27.08 -18.74,28.06 -17.38,29.01 -15.96,29.92 -14.49,30.77 -12.98,31.6 -11.4,32.36 -9.77,33.06 -8.11,33.74 -6.39,34.32 -4.61,34.87 -2.8,35.35 z m 714.1,691.22 v -283.47 l -22.59,-0.55 -22.2,-1.62 -21.83,-2.67 -21.43,-3.67 -21.03,-4.66 -20.59,-5.61 -20.15,-6.55 -19.67,-7.45 -19.16,-8.32 -18.65,-9.16 -18.09,-9.99 -17.51,-10.78 -16.91,-11.54 -16.26,-12.26 -15.6,-12.98 -14.91,-13.64 -14.17,-14.28 -13.44,-14.89 -12.65,-15.46 -11.87,-16.01 -11.03,-16.52 -10.19,-17.02 -9.32,-17.46 -8.43,-17.9 -7.52,-18.32 -6.59,-18.7 -5.66,-19.09 -4.67,-19.43 -3.68,-19.8 -2.67,-20.13 -1.62,-20.46 -0.55,-20.83 h -283.46 l 0.94,35.71 2.8,35.35 4.61,34.87 6.39,34.33 8.11,33.73 9.77,33.07 11.4,32.36 12.98,31.59 14.49,30.78 15.96,29.91 17.38,29.01 18.74,28.07 20.05,27.08 21.33,26.05 22.55,24.99 23.72,23.89 24.85,22.74 25.93,21.57 26.99,20.36 27.98,19.1 28.93,17.8 29.84,16.48 30.72,15.1 31.54,13.69 32.32,12.23 33.04,10.73 33.73,9.19 34.36,7.62 34.94,5.98 35.46,4.33 35.94,2.62 z m 714.1,-691.22 h -283.46 v 0 l -0.55,20.83 -1.62,20.46 -2.67,20.13 -3.68,19.8 -4.67,19.43 -5.65,19.09 -6.59,18.7 -7.52,18.32 -8.43,17.89 -9.33,17.47 -10.18,17.02 -11.04,16.52 -11.86,16.01 -12.66,15.46 -13.43,14.89 -14.18,14.28 -14.91,13.64 -15.6,12.97 -16.26,12.27 -16.9,11.54 -17.52,10.78 -18.09,9.99 -18.65,9.17 -19.15,8.31 -19.68,7.45 -20.15,6.55 -20.59,5.61 -21.02,4.66 -21.43,3.67 -21.84,2.67 -22.2,1.62 -22.59,0.55 v 283.47 l 36.32,-0.89 35.93,-2.62 35.46,-4.33 34.95,-5.98 34.35,-7.62 33.74,-9.19 33.03,-10.73 32.32,-12.23 31.55,-13.7 30.71,-15.09 29.84,-16.48 28.94,-17.8 27.98,-19.11 26.98,-20.35 25.93,-21.57 24.85,-22.74 23.72,-23.89 22.56,-24.99 21.32,-26.06 20.05,-27.07 18.75,-28.07 17.37,-29.01 15.96,-29.91 14.49,-30.78 12.98,-31.59 11.4,-32.36 9.78,-33.07 8.11,-33.73 6.38,-34.33 4.62,-34.87 2.8,-35.35 z m -714.1,-691.22 v 283.46 l 22.59,0.55 22.2,1.63 21.84,2.66 21.43,3.68 21.02,4.66 20.59,5.61 20.15,6.55 19.68,7.44 19.15,8.32 18.65,9.17 18.09,9.99 17.52,10.77 16.9,11.54 16.26,12.27 15.6,12.98 14.91,13.64 14.18,14.28 13.43,14.88 12.66,15.46 11.86,16.02 11.04,16.52 10.18,17.01 9.33,17.48 8.43,17.89 7.52,18.32 6.59,18.7 5.65,19.09 4.67,19.42 3.68,19.8 2.67,20.13 1.62,20.46 0.55,20.84 h 283.46 l -0.93,-35.72 -2.8,-35.35 -4.62,-34.87 -6.38,-34.32 -8.11,-33.74 -9.78,-33.06 -11.4,-32.36 -12.98,-31.6 -14.49,-30.78 -15.96,-29.91 -17.37,-29.01 -18.75,-28.06 -20.05,-27.08 -21.32,-26.06 -22.56,-24.98 -23.72,-23.89 -24.85,-22.74 -25.93,-21.57 -26.98,-20.36 -27.98,-19.1 -28.94,-17.81 -29.84,-16.47 -30.71,-15.1 -31.55,-13.7 -32.32,-12.22 -33.03,-10.74 -33.74,-9.19 -34.35,-7.61 -34.95,-5.99 -35.46,-4.33 -35.93,-2.62 -36.32,-0.88 v 0" style="fill:#164f86;fill-opacity:1;fill-rule:evenodd;stroke:none" id="path26" inkscape:connector-curvature="0"/><path d="m 7907.58,10557.5 c -346.39,0 -627.19,269.6 -627.19,602.2 0,332.5 280.8,602.1 627.19,602.1 346.39,0 627.19,-269.6 627.19,-602.1 0,-332.6 -280.8,-602.2 -627.19,-602.2" style="fill:#164f86;fill-opacity:1;fill-rule:evenodd;stroke:none" id="path28" inkscape:connector-curvature="0"/><path d="m 7138.66,11159.7 h 283.46 v 0 l 0.62,-23.6 1.83,-23.1 3.02,-22.8 4.16,-22.4 5.29,-22 6.38,-21.5 7.46,-21.2 8.5,-20.7 9.53,-20.2 10.53,-19.8 11.51,-19.2 12.46,-18.6 13.39,-18.1 14.29,-17.5 15.15,-16.7 16,-16.2 16.81,-15.3 17.59,-14.7 18.33,-13.8 19.05,-13 19.74,-12.2 20.39,-11.2 21.01,-10.3 21.59,-9.4 22.16,-8.4 22.7,-7.4 23.19,-6.3 23.68,-5.2 24.13,-4.2 24.57,-3 24.99,-1.8 25.41,-0.6 v -283.5 l -39.14,1 -38.72,2.8 -38.2,4.6 -37.64,6.5 -37.02,8.2 -36.32,9.9 -35.59,11.6 -34.81,13.1 -33.97,14.8 -33.08,16.2 -32.14,17.8 -31.16,19.2 -30.12,20.5 -29.06,21.9 -27.93,23.3 -26.75,24.5 -25.54,25.7 -24.26,26.9 -22.96,28 -21.58,29.1 -20.17,30.2 -18.69,31.3 -17.18,32.2 -15.59,33.1 -13.95,33.9 -12.26,34.8 -10.52,35.6 -8.72,36.3 -6.87,36.9 -4.96,37.5 -3.01,38 z m 768.92,743.8 V 11620 l -25.41,-0.6 -24.99,-1.8 -24.57,-3 -24.13,-4.1 -23.68,-5.3 -23.19,-6.3 -22.7,-7.4 -22.16,-8.4 -21.6,-9.3 -21,-10.4 -20.39,-11.2 -19.74,-12.2 -19.05,-13 -18.33,-13.8 -17.59,-14.6 -16.81,-15.4 -16,-16.1 -15.15,-16.8 -14.29,-17.5 -13.39,-18.1 -12.46,-18.6 -11.51,-19.2 -10.53,-19.8 -9.53,-20.2 -8.5,-20.7 -7.46,-21.2 -6.38,-21.5 -5.29,-22 -4.16,-22.4 -3.02,-22.8 -1.83,-23.1 -0.62,-23.5 h -283.46 l 1.01,38.4 3.01,38 4.96,37.5 6.87,36.9 8.72,36.3 10.52,35.6 12.26,34.8 13.95,33.9 15.59,33.2 17.18,32.1 18.69,31.3 20.17,30.2 21.58,29.1 22.95,28 24.27,26.9 25.54,25.8 26.76,24.4 27.92,23.3 29.05,21.9 30.13,20.6 31.16,19.1 32.14,17.8 33.08,16.2 33.97,14.8 34.81,13.1 35.59,11.6 36.32,9.9 37.02,8.2 37.64,6.5 38.2,4.6 38.72,2.9 z m 768.92,-743.8 h -283.46 v 0 l -0.62,23.5 -1.84,23.1 -3.01,22.8 -4.16,22.4 -5.29,22 -6.39,21.5 -7.45,21.2 -8.51,20.7 -9.52,20.2 -10.54,19.8 -11.51,19.2 -12.45,18.6 -13.39,18.1 -14.29,17.5 -15.16,16.8 -16,16.1 -16.8,15.4 -17.59,14.6 -18.34,13.8 -19.05,13 -19.74,12.2 -20.38,11.2 -21.01,10.4 -21.6,9.3 -22.16,8.4 -22.69,7.4 -23.2,6.3 -23.67,5.3 -24.13,4.1 -24.57,3 -24.99,1.8 -25.41,0.6 v 283.5 l 39.14,-0.9 38.71,-2.9 38.21,-4.6 37.64,-6.5 37.02,-8.2 36.32,-9.9 35.6,-11.6 34.8,-13.1 33.96,-14.8 33.09,-16.2 32.14,-17.8 31.15,-19.1 30.13,-20.6 29.05,-21.9 27.93,-23.3 26.76,-24.4 25.54,-25.8 24.27,-26.9 22.94,-28 21.59,-29.1 20.17,-30.2 18.69,-31.3 17.17,-32.1 15.6,-33.2 13.95,-33.9 12.26,-34.8 10.52,-35.6 8.72,-36.3 6.87,-36.9 4.96,-37.5 3.01,-38 z m -768.92,-743.9 v 283.5 l 25.41,0.6 24.99,1.8 24.57,3 24.13,4.2 23.67,5.2 23.2,6.3 22.7,7.4 22.15,8.4 21.6,9.4 21.01,10.3 20.38,11.2 19.74,12.2 19.06,13 18.33,13.8 17.58,14.7 16.81,15.3 16,16.2 15.16,16.8 14.29,17.4 13.39,18.1 12.45,18.6 11.51,19.2 10.54,19.8 9.52,20.2 8.51,20.7 7.45,21.2 6.39,21.5 5.29,22 4.16,22.4 3.01,22.8 1.84,23.1 0.62,23.6 h 283.46 l -1.01,-38.5 -3.01,-38 -4.96,-37.5 -6.87,-36.9 -8.72,-36.3 -10.52,-35.6 -12.26,-34.8 -13.95,-33.9 -15.6,-33.2 -17.17,-32.1 -18.69,-31.2 -20.17,-30.3 -21.59,-29.1 -22.95,-28 -24.27,-26.9 -25.53,-25.7 -26.75,-24.5 -27.94,-23.3 -29.06,-21.9 -30.12,-20.5 -31.15,-19.2 -32.14,-17.8 -33.08,-16.2 -33.97,-14.8 -34.81,-13.1 -35.59,-11.6 -36.32,-9.9 -37.02,-8.2 -37.64,-6.5 -38.21,-4.6 -38.71,-2.8 -39.14,-1 v 0" style="fill:#164f86;fill-opacity:1;fill-rule:evenodd;stroke:none" id="path30" inkscape:connector-curvature="0"/><path d="m 4045.47,10768.4 h 283.47 v 0 l 1.11,-42.3 3.31,-41.7 5.43,-41 7.5,-40.4 9.54,-39.6 11.5,-38.9 13.44,-38.1 15.31,-37.3 17.14,-36.4 18.93,-35.5 20.66,-34.5 22.35,-33.4 23.99,-32.4 25.57,-31.3 27.1,-30 28.6,-28.8 30.01,-27.5 31.37,-26 32.7,-24.7 33.96,-23.2 35.17,-21.6 36.31,-20.1 37.4,-18.4 38.43,-16.7 39.43,-14.88 40.35,-13.11 41.24,-11.24 42.08,-9.33 42.84,-7.34 43.61,-5.32 44.29,-3.24 44.98,-1.09 v -283.46 l -58.7,1.42 -58.03,4.23 -57.23,6.99 -56.36,9.66 -55.41,12.27 -54.37,14.82 -53.26,17.3 -52.07,19.71 -50.81,22.05 -49.47,24.33 -48.06,26.53 -46.59,28.67 -45.03,30.74 -43.41,32.75 -41.73,34.7 -39.96,36.58 -38.12,38.36 -36.22,40.2 -34.24,41.8 -32.18,43.4 -30.06,45.1 -27.85,46.5 -25.56,47.9 -23.21,49.2 -20.76,50.6 -18.24,51.8 -15.65,52.9 -12.96,53.9 -10.21,54.9 -7.38,55.8 -4.48,56.5 z m 1149.12,1108.9 v -283.5 l -44.98,-1.1 -44.29,-3.2 -43.61,-5.4 -42.84,-7.3 -42.08,-9.3 -41.24,-11.3 -40.35,-13.1 -39.43,-14.9 -38.43,-16.7 -37.4,-18.4 -36.31,-20 -35.17,-21.7 -33.96,-23.1 -32.7,-24.7 -31.37,-26.1 -30.01,-27.5 -28.6,-28.8 -27.1,-30 -25.57,-31.3 -23.99,-32.3 -22.35,-33.5 -20.66,-34.5 -18.93,-35.5 -17.14,-36.4 -15.31,-37.3 -13.44,-38.1 -11.5,-38.9 -9.54,-39.6 -7.5,-40.4 -5.43,-41 -3.31,-41.7 -1.11,-42.3 h -283.47 l 1.51,57.2 4.48,56.6 7.38,55.7 10.21,54.9 12.96,54 15.65,52.9 18.24,51.7 20.76,50.6 23.21,49.3 25.56,47.9 27.85,46.5 30.06,45 32.18,43.4 34.24,41.9 36.22,40.1 38.12,38.4 39.96,36.6 41.73,34.7 43.41,32.7 45.03,30.8 46.59,28.6 48.06,26.6 49.47,24.3 50.81,22 52.07,19.8 53.26,17.3 54.37,14.8 55.41,12.2 56.36,9.7 57.23,7 58.03,4.2 z M 6343.7,10768.4 h -283.46 v 0 l -1.11,42.3 -3.31,41.7 -5.43,41 -7.51,40.4 -9.53,39.6 -11.51,38.9 -13.43,38.1 -15.31,37.3 -17.14,36.4 -18.93,35.5 -20.67,34.5 -22.35,33.5 -23.98,32.3 -25.57,31.3 -27.11,30 -28.59,28.8 -30.01,27.5 -31.38,26.1 -32.7,24.7 -33.96,23.1 -35.16,21.7 -36.31,20 -37.4,18.4 -38.44,16.7 -39.42,14.9 -40.36,13.1 -41.24,11.3 -42.07,9.3 -42.85,7.3 -43.6,5.4 -44.29,3.2 -44.98,1.1 v 283.5 l 58.7,-1.5 58.03,-4.2 57.23,-7 56.36,-9.7 55.41,-12.2 54.36,-14.8 53.27,-17.3 52.07,-19.8 50.8,-22 49.48,-24.3 48.06,-26.6 46.58,-28.6 45.04,-30.8 43.41,-32.7 41.72,-34.7 39.96,-36.6 38.13,-38.4 36.21,-40.1 34.24,-41.9 32.19,-43.4 30.05,-45 27.86,-46.5 25.56,-47.9 23.21,-49.3 20.76,-50.6 18.24,-51.7 15.64,-52.9 12.97,-54 10.21,-54.9 7.37,-55.7 4.49,-56.6 z M 5194.59,9659.59 v 283.46 l 44.98,1.09 44.29,3.24 43.6,5.32 42.85,7.34 42.07,9.33 41.24,11.24 40.36,13.11 39.42,14.88 38.44,16.7 37.4,18.4 36.31,20.1 35.16,21.6 33.96,23.2 32.7,24.7 31.38,26 30.01,27.5 28.59,28.8 27.11,30 25.57,31.3 23.98,32.4 22.35,33.4 20.67,34.5 18.93,35.5 17.14,36.4 15.31,37.3 13.43,38.1 11.51,38.9 9.53,39.6 7.51,40.4 5.43,41 3.31,41.7 1.11,42.3 h 283.46 l -1.5,-57.2 -4.49,-56.5 -7.37,-55.8 -10.21,-54.9 -12.97,-53.9 -15.64,-52.9 -18.24,-51.8 -20.76,-50.6 -23.21,-49.2 -25.56,-47.9 -27.86,-46.5 -30.05,-45.1 -32.19,-43.4 -34.24,-41.8 -36.21,-40.2 -38.13,-38.36 -39.96,-36.58 -41.72,-34.7 -43.41,-32.75 -45.04,-30.74 -46.58,-28.67 -48.06,-26.53 -49.48,-24.33 -50.8,-22.05 -52.07,-19.71 -53.27,-17.3 -54.36,-14.82 -55.41,-12.27 -56.36,-9.66 -57.23,-6.99 -58.03,-4.23 -58.7,-1.42 v 0" style="fill:#164f86;fill-opacity:1;fill-rule:evenodd;stroke:none" id="path32" inkscape:connector-curvature="0"/><path d="m 8697.84,5679.75 h 283.47 v 0 l 0.83,-31.65 2.47,-31.14 4.06,-30.64 5.6,-30.14 7.12,-29.61 8.6,-29.04 10.03,-28.47 11.45,-27.86 12.81,-27.21 14.15,-26.53 15.46,-25.81 16.73,-25.05 17.96,-24.24 19.16,-23.41 20.31,-22.51 21.43,-21.58 22.5,-20.6 23.55,-19.58 24.53,-18.5 25.48,-17.4 26.4,-16.24 27.25,-15.05 28.08,-13.81 28.87,-12.52 29.61,-11.21 30.32,-9.85 30.98,-8.45 31.61,-7.01 32.21,-5.51 32.79,-4 33.31,-2.44 33.86,-0.82 V 4778.4 l -47.59,1.16 -47.04,3.43 -46.41,5.66 -45.73,7.84 -44.95,9.96 -44.11,12.02 -43.21,14.04 -42.26,15.99 -41.24,17.9 -40.15,19.74 -39.01,21.53 -37.82,23.28 -36.56,24.96 -35.25,26.59 -33.87,28.17 -32.46,29.71 -30.97,31.18 -29.42,32.62 -27.82,33.98 -26.17,35.32 -24.43,36.59 -22.64,37.81 -20.8,38.98 -18.87,40.09 -16.89,41.13 -14.85,42.12 -12.73,43.04 -10.55,43.89 -8.31,44.68 -6.01,45.39 -3.64,46.01 z m 932.99,901.34 v -283.47 l -33.86,-0.82 -33.31,-2.43 -32.79,-4 -32.21,-5.53 -31.61,-7 -30.98,-8.45 -30.32,-9.85 -29.61,-11.21 -28.87,-12.52 -28.08,-13.81 -27.25,-15.05 -26.4,-16.24 -25.48,-17.4 -24.53,-18.51 -23.55,-19.57 -22.5,-20.6 -21.43,-21.58 -20.31,-22.51 -19.15,-23.4 -17.97,-24.25 -16.73,-25.05 -15.46,-25.81 -14.15,-26.53 -12.81,-27.21 -11.45,-27.86 -10.03,-28.47 -8.6,-29.04 -7.12,-29.61 -5.6,-30.13 -4.06,-30.65 -2.47,-31.14 -0.83,-31.64 h -283.47 l 1.23,46.53 3.64,46.01 6.01,45.39 8.31,44.68 10.55,43.89 12.73,43.05 14.85,42.12 16.89,41.13 18.87,40.08 20.8,38.98 22.64,37.81 24.44,36.59 26.15,35.31 27.83,34 29.42,32.61 30.97,31.18 32.46,29.71 33.87,28.17 35.25,26.59 36.56,24.96 37.82,23.28 39.01,21.53 40.15,19.74 41.24,17.89 42.26,16 43.21,14.04 44.11,12.02 44.95,9.96 45.73,7.84 46.41,5.66 47.04,3.43 z m 932.97,-901.34 h -283.5 v 0 l -0.8,31.64 -2.5,31.14 -4,30.65 -5.6,30.13 -7.1,29.61 -8.6,29.04 -10.1,28.47 -11.4,27.86 -12.8,27.21 -14.2,26.53 -15.4,25.81 -16.8,25.05 -17.9,24.25 -19.2,23.4 -20.3,22.51 -21.4,21.58 -22.5,20.6 -23.6,19.57 -24.5,18.51 -25.49,17.4 -26.39,16.24 -27.26,15.05 -28.08,13.81 -28.86,12.52 -29.61,11.21 -30.32,9.85 -30.98,8.45 -31.62,7 -32.2,5.53 -32.79,4 -33.32,2.43 -33.85,0.82 v 283.47 l 47.58,-1.16 47.05,-3.43 46.41,-5.66 45.72,-7.84 44.96,-9.96 44.11,-12.02 43.22,-14.04 42.25,-16 41.27,-17.89 40.1,-19.74 39,-21.53 37.8,-23.28 36.6,-24.95 35.3,-26.6 33.8,-28.18 32.5,-29.7 30.9,-31.18 29.5,-32.61 27.8,-34 26.2,-35.31 24.4,-36.59 22.6,-37.81 20.8,-38.98 18.9,-40.08 16.9,-41.13 14.8,-42.12 12.8,-43.05 10.5,-43.89 8.3,-44.68 6,-45.39 3.7,-46.01 z M 9630.83,4778.4 v 283.47 l 33.85,0.82 33.32,2.44 32.79,4 32.2,5.51 31.62,7.01 30.98,8.45 30.32,9.85 29.61,11.21 28.86,12.52 28.08,13.81 27.26,15.05 26.39,16.24 25.49,17.4 24.5,18.5 23.6,19.58 22.5,20.6 21.4,21.58 20.3,22.51 19.2,23.41 17.9,24.24 16.8,25.05 15.4,25.81 14.2,26.53 12.8,27.21 11.4,27.86 10.1,28.47 8.6,29.04 7.1,29.61 5.6,30.14 4,30.64 2.5,31.14 0.8,31.65 h 283.5 l -1.2,-46.54 -3.7,-46.01 -6,-45.39 -8.3,-44.68 -10.5,-43.89 -12.8,-43.04 -14.8,-42.12 -16.9,-41.13 -18.9,-40.09 -20.8,-38.98 -22.6,-37.81 -24.4,-36.59 -26.2,-35.32 -27.8,-33.98 -29.5,-32.62 -30.9,-31.18 -32.5,-29.7 -33.8,-28.18 -35.3,-26.59 -36.6,-24.96 -37.8,-23.28 -39,-21.53 -40.1,-19.74 -41.27,-17.9 -42.25,-15.99 -43.22,-14.04 -44.11,-12.02 -44.96,-9.96 -45.72,-7.84 -46.41,-5.66 -47.05,-3.43 -47.58,-1.16 v 0" style="fill:#164f86;fill-opacity:1;fill-rule:evenodd;stroke:none" id="path34" inkscape:connector-curvature="0"/><path d="m 4178.74,6426.64 h 283.46 v 0 l 0.59,-22.09 1.71,-21.71 2.84,-21.35 3.9,-20.99 4.96,-20.62 5.99,-20.24 6.99,-19.85 7.98,-19.43 8.94,-18.97 9.88,-18.53 10.81,-18.03 11.69,-17.52 12.57,-16.97 13.42,-16.39 14.23,-15.77 15.03,-15.13 15.79,-14.45 16.52,-13.74 17.23,-13 17.9,-12.22 18.55,-11.41 19.16,-10.58 19.73,-9.7 20.3,-8.81 20.82,-7.89 21.34,-6.93 21.8,-5.94 22.26,-4.93 22.69,-3.9 23.1,-2.82 23.49,-1.71 23.9,-0.58 v -283.46 l -37.62,0.91 -37.23,2.72 -36.74,4.48 -36.18,6.2 -35.6,7.88 -34.94,9.53 -34.23,11.12 -33.47,12.66 -32.67,14.18 -31.81,15.64 -30.92,17.07 -29.96,18.44 -28.98,19.78 -27.94,21.09 -26.87,22.33 -25.73,23.55 -24.56,24.74 -23.35,25.88 -22.08,26.98 -20.77,28.03 -19.41,29.06 -17.98,30.04 -16.52,30.96 -15.01,31.87 -13.43,32.7 -11.8,33.49 -10.12,34.23 -8.39,34.91 -6.62,35.53 -4.77,36.1 -2.9,36.58 z m 739.57,715.67 v -283.47 l -23.9,-0.57 -23.49,-1.72 -23.1,-2.82 -22.69,-3.89 -22.26,-4.93 -21.8,-5.95 -21.34,-6.93 -20.82,-7.88 -20.3,-8.81 -19.73,-9.71 -19.16,-10.58 -18.55,-11.41 -17.9,-12.22 -17.23,-12.99 -16.52,-13.75 -15.79,-14.45 -15.03,-15.13 -14.23,-15.77 -13.42,-16.39 -12.57,-16.97 -11.69,-17.51 -10.81,-18.04 -9.88,-18.52 -8.94,-18.98 -7.98,-19.43 -6.99,-19.84 -5.99,-20.24 -4.96,-20.62 -3.9,-21 -2.84,-21.35 -1.71,-21.71 -0.59,-22.09 h -283.46 l 0.97,36.98 2.9,36.59 4.77,36.09 6.62,35.53 8.39,34.92 10.12,34.23 11.8,33.49 13.43,32.7 15.01,31.86 16.52,30.97 17.98,30.04 19.41,29.05 20.77,28.04 22.08,26.98 23.35,25.88 24.56,24.73 25.73,23.55 26.87,22.34 27.94,21.08 28.98,19.79 29.96,18.44 30.92,17.06 31.81,15.64 32.67,14.18 33.47,12.67 34.23,11.12 34.94,9.52 35.6,7.88 36.18,6.21 36.74,4.48 37.23,2.72 z m 739.58,-715.67 h -283.47 v 0 l -0.58,22.09 -1.72,21.71 -2.83,21.35 -3.9,21 -4.96,20.62 -5.99,20.24 -6.99,19.84 -7.99,19.43 -8.93,18.98 -9.89,18.52 -10.8,18.04 -11.7,17.51 -12.57,16.97 -13.41,16.39 -14.23,15.77 -15.03,15.13 -15.79,14.45 -16.52,13.75 -17.23,12.99 -17.9,12.22 -18.55,11.41 -19.16,10.58 -19.74,9.71 -20.3,8.81 -20.82,7.88 -21.33,6.93 -21.8,5.95 -22.25,4.93 -22.7,3.89 -23.1,2.82 -23.49,1.72 -23.91,0.57 v 283.47 l 37.63,-0.91 37.23,-2.72 36.74,-4.48 36.19,-6.21 35.59,-7.88 34.94,-9.52 34.23,-11.12 33.47,-12.67 32.67,-14.18 31.81,-15.64 30.91,-17.06 29.97,-18.45 28.98,-19.78 27.94,-21.08 26.86,-22.34 25.74,-23.55 24.56,-24.74 23.35,-25.87 22.08,-26.98 20.76,-28.04 19.41,-29.05 17.99,-30.04 16.52,-30.97 15,-31.86 13.43,-32.7 11.81,-33.49 10.12,-34.23 8.39,-34.92 6.61,-35.53 4.78,-36.09 2.89,-36.59 z m -739.58,-715.66 v 283.46 l 23.91,0.58 23.49,1.71 23.1,2.82 22.7,3.9 22.25,4.93 21.8,5.94 21.33,6.93 20.82,7.89 20.3,8.81 19.74,9.7 19.16,10.58 18.55,11.41 17.9,12.22 17.23,13 16.52,13.74 15.79,14.45 15.03,15.13 14.23,15.77 13.41,16.39 12.57,16.97 11.7,17.52 10.8,18.03 9.89,18.53 8.93,18.97 7.99,19.43 6.99,19.85 5.99,20.24 4.96,20.62 3.9,20.99 2.83,21.35 1.72,21.71 0.58,22.09 h 283.47 l -0.98,-36.98 -2.89,-36.58 -4.78,-36.1 -6.61,-35.53 -8.39,-34.91 -10.12,-34.23 -11.81,-33.49 -13.43,-32.7 -15,-31.87 -16.52,-30.96 -17.99,-30.04 -19.41,-29.06 -20.76,-28.03 -22.08,-26.98 -23.35,-25.88 -24.56,-24.74 -25.74,-23.55 -26.86,-22.33 -27.94,-21.09 -28.98,-19.78 -29.97,-18.44 -30.91,-17.07 -31.81,-15.64 -32.67,-14.18 -33.47,-12.66 -34.23,-11.12 -34.94,-9.53 -35.59,-7.88 -36.19,-6.2 -36.74,-4.48 -37.23,-2.72 -37.63,-0.91 v 0" style="fill:#164f86;fill-opacity:1;fill-rule:evenodd;stroke:none" id="path36" inkscape:connector-curvature="0"/><path d="M 9576.68,9625.48 5416.5,6744.03" style="fill:none;stroke:#164f86;stroke-width:283.46499634;stroke-linecap:butt;stroke-linejoin:miter;stroke-miterlimit:22.92560005;stroke-dasharray:none;stroke-opacity:1" id="path38" inkscape:connector-curvature="0"/><path d="M 7854.81,10689.6 6934.8,5097.68" style="fill:none;stroke:#164f86;stroke-width:283.46499634;stroke-linecap:butt;stroke-linejoin:miter;stroke-miterlimit:22.92560005;stroke-dasharray:none;stroke-opacity:1" id="path40" inkscape:connector-curvature="0"/><path d="M 5795.45,10057.9 8643.0035,6922.4425 9197.73,6311.63" style="fill:none;stroke:#164f86;stroke-width:283.46499634;stroke-linecap:butt;stroke-linejoin:miter;stroke-miterlimit:22.92560005;stroke-dasharray:none;stroke-opacity:1" id="path42" inkscape:connector-curvature="0" sodipodi:nodetypes="ccc"/></g></g></svg>